<svg width="806" height="356" viewBox="0 0 806 356" fill="none" xmlns="http://www.w3.org/2000/svg">
<g clip-path="url(#clip0)">
<rect width="806" height="356" fill="white"/>
<path d="M794.5 249.5C794.934 250.401 794.933 250.401 794.933 250.401L794.932 250.402L794.929 250.403L794.915 250.41L794.861 250.436L794.649 250.537C794.462 250.626 794.187 250.757 793.832 250.926C793.12 251.262 792.086 251.748 790.792 252.347C788.206 253.545 784.582 255.196 780.434 257.006C772.147 260.622 761.728 264.892 753.291 267.457C742.497 270.738 728.31 273.247 716.856 274.933C711.122 275.778 706.06 276.418 702.431 276.847C700.616 277.062 699.159 277.224 698.156 277.332C697.654 277.386 697.265 277.427 697.002 277.454C696.87 277.468 696.77 277.478 696.702 277.485L696.648 277.49L696.642 277.491L696.545 277.509C696.453 277.526 696.317 277.551 696.139 277.584C695.781 277.649 695.254 277.746 694.572 277.87C693.208 278.117 691.225 278.472 688.75 278.905C683.799 279.772 676.876 280.949 668.987 282.192C653.217 284.678 633.556 287.434 618.069 288.498C603.024 289.531 583.739 289.531 568.234 289.273C560.477 289.144 553.659 288.95 548.78 288.789C546.34 288.709 544.385 288.636 543.039 288.584C542.366 288.558 541.846 288.536 541.494 288.522L541.093 288.505L540.991 288.501L540.965 288.499L540.962 288.499L540.96 288.499L540.958 288.499L540.957 288.499L540.954 288.499L540.931 288.498L540.838 288.495L540.475 288.48C540.155 288.467 539.683 288.448 539.072 288.422C537.851 288.37 536.076 288.29 533.859 288.181C529.425 287.962 523.223 287.625 516.147 287.149C502.004 286.2 484.342 284.697 470.344 282.488C452.337 279.646 438.689 275.804 425.113 271.782C423.805 271.394 422.497 271.005 421.186 270.615C408.899 266.958 396.343 263.22 380.302 259.98C374.336 258.775 369.38 257.694 364.903 256.717C352.26 253.959 343.428 252.032 326.41 250.496C317.4 249.683 304.178 249.183 293.189 248.887C287.699 248.74 282.773 248.643 279.22 248.583C277.444 248.553 276.011 248.532 275.022 248.519C274.864 248.517 274.717 248.515 274.581 248.513C274.578 249.038 274.524 249.715 274.353 250.52C273.941 252.464 272.861 255.115 270.259 258.151C267.65 261.194 264.899 262.902 262.784 263.85C261.727 264.323 260.83 264.607 260.188 264.773C259.867 264.856 259.61 264.91 259.428 264.943C259.337 264.96 259.265 264.972 259.213 264.98C259.187 264.984 259.167 264.987 259.151 264.989L259.132 264.991L259.125 264.992L259.122 264.992L259.121 264.993C259.121 264.993 259.12 264.993 259 264L259.12 264.993L259.051 265.001L258.981 265L25.5542 260.511L14.8586 278.013L4.48023 295.804C4.47261 295.933 4.46427 296.119 4.46081 296.351C4.45348 296.842 4.46816 297.533 4.55637 298.327C4.73488 299.934 5.20449 301.866 6.31372 303.419C7.50579 305.088 8.94807 306.533 10.1043 307.567C10.68 308.082 11.1792 308.491 11.5326 308.769C11.7092 308.908 11.8491 309.014 11.9435 309.085C11.9907 309.12 12.0265 309.146 12.0498 309.163L12.0753 309.182L12.0766 309.183L12.0772 309.183L12.08 309.185L12.0808 309.186L12.0814 309.186L12.0816 309.187L12.0926 309.194L12.1455 309.231C12.1931 309.264 12.2653 309.314 12.3617 309.38C12.5544 309.512 12.8439 309.709 13.2275 309.964C13.9949 310.474 15.1386 311.219 16.6374 312.151C19.635 314.015 24.052 316.628 29.7165 319.616C41.0469 325.592 57.3616 333.064 77.2873 339.042C97.2298 345.025 114.679 348.265 127.139 350.01C133.368 350.882 138.349 351.38 141.769 351.66C143.479 351.799 144.799 351.885 145.689 351.935C146.134 351.96 146.472 351.977 146.698 351.987C146.811 351.992 146.896 351.995 146.952 351.998L147.014 352L147.018 352H259.984L373.469 348.5L373.501 348.499L373.533 348.501L511.501 353L511.51 353L511.54 352.999L511.696 352.997C511.835 352.996 512.041 352.993 512.312 352.989C512.855 352.981 513.658 352.967 514.699 352.948C516.781 352.908 519.815 352.842 523.62 352.736C531.231 352.523 541.926 352.149 554.26 351.504C578.936 350.214 610.142 347.841 636.337 343.513C662.484 339.193 690.658 329.598 712.321 321.067C723.147 316.804 732.335 312.811 738.815 309.884C742.055 308.421 744.618 307.225 746.37 306.395C747.246 305.98 747.919 305.656 748.372 305.437C748.599 305.327 748.771 305.243 748.886 305.187L749.015 305.124L749.048 305.108L749.055 305.104L749.057 305.103C749.058 305.103 749.058 305.103 749.5 306M794.5 249.5L794.934 250.401L795.242 250.253L795.394 249.947L794.5 249.5ZM794.5 249.5C795.394 249.947 795.395 249.947 795.395 249.947L795.395 249.946L795.396 249.944L795.398 249.94L795.405 249.926L795.426 249.882C795.444 249.845 795.468 249.792 795.499 249.724C795.559 249.589 795.643 249.393 795.743 249.14C795.942 248.633 796.204 247.896 796.464 246.953C796.984 245.068 797.5 242.353 797.5 239C797.5 235.675 796.991 231.241 796.49 227.674C796.261 226.04 796.032 224.577 795.85 223.468C795.89 223.497 795.929 223.526 795.969 223.555C797.08 224.373 798.483 225.66 799.652 227.53C800.778 229.331 801.385 232.141 801.695 234.624C801.848 235.843 801.924 236.942 801.962 237.736C801.981 238.132 801.991 238.451 801.995 238.67C801.998 238.779 801.999 238.863 801.999 238.919L802 238.982L802 238.997V239V239.001V239.007L802 239.028L802 239.115L801.999 239.247L801.997 239.455C801.994 239.752 801.988 240.186 801.977 240.729C801.954 241.814 801.907 243.334 801.814 245.072C801.627 248.559 801.255 252.87 800.522 256.29C799.806 259.635 798.119 263.026 796.578 265.614C795.812 266.9 795.093 267.972 794.565 268.721C794.302 269.096 794.086 269.389 793.938 269.587C793.864 269.686 793.807 269.761 793.769 269.811L793.726 269.866L793.722 269.871L793.722 269.872L793.721 269.873L793.716 269.879L793.715 269.88L793.714 269.882L793.714 269.882L793.694 269.907L793.606 270.014C793.529 270.108 793.415 270.248 793.266 270.429C792.968 270.791 792.533 271.316 791.985 271.967C790.89 273.269 789.345 275.075 787.548 277.087C783.943 281.123 779.361 285.95 775.366 289.227C770.765 293.001 764.205 296.965 758.758 300.002C756.042 301.516 753.616 302.791 751.869 303.689C750.996 304.137 750.293 304.491 749.809 304.732C749.567 304.853 749.38 304.945 749.254 305.007L749.11 305.077L749.074 305.095L749.066 305.099L749.064 305.1L749.063 305.1L749.5 306M749.5 306L749.063 305.101L749.058 305.103L749.5 306Z" fill="white" stroke="black" stroke-width="2"/>
<path d="M71.5 129C61.9231 154.998 53.5 198.5 53.5 198.5L61 202L168.5 178.5L415 268.5C415 268.5 451.5 278.632 466 281.5C505.992 289.41 522.736 289.111 563.5 289.5C610.507 289.949 641.439 287.981 688 281.5C716.871 277.481 736.391 273.35 764 264C778.911 258.95 794.5 249.5 794.5 249.5C794.5 249.5 798.122 242.272 798.5 238.5C799.224 231.269 798.111 227.806 794.5 221.5C789.509 212.786 780.5 213 771.5 210C762.5 207 722.931 201.121 692 194.5C637.309 182.793 604.373 182.113 553 160C532.466 151.161 521.452 145.017 502 134C466.28 113.769 446.643 101.152 415 75C400.4 62.9338 392.214 56.0699 379 42.5C372.54 35.8657 368.662 32.3277 363 25C356.774 16.9415 349 3 349 3C349 3 342.434 3.20481 338.5 4.5C334.014 5.97674 329.543 6.0364 328 10.5C327.234 12.7146 328 16.5 328 16.5C328 16.5 335.241 40.6915 334.5 56.5C334.064 65.7991 333.993 71.371 330.5 80C320.329 105.121 296.509 108.36 270 114C251.474 117.942 239.448 120.052 221.5 114C203.922 108.073 198.445 96.4878 183.5 85.5C173.588 78.2124 168.444 73.5023 158 67C147.323 60.3527 139.196 60.0115 129.5 52C127.262 50.151 126.752 47.9228 124 47C118.856 45.2752 112 54 112 54C112 54 83.0061 97.765 71.5 129Z" fill="#2D2D2D"/>
<path d="M257 230.5L121 170.5C121 170.5 129.5 162.5 139 161C148.5 159.5 165.5 164.5 165.5 164.5C165.5 164.5 268.361 199.512 332 227.5C366.22 242.55 418.5 268.5 418.5 268.5C418.5 268.5 383.337 259.396 360.5 255C340.893 251.226 309.5 248.5 309.5 248.5H265.5C265.5 248.5 264.546 242.679 264 240C263.09 235.538 257 230.5 257 230.5Z" fill="#5F5F5F"/>
<path d="M25 259.5L35.5 241L275 247.5C275 247.5 273.5 255.714 269.5 259C265.5 262.286 260 264 260 264L25 259.5Z" fill="black"/>
<path d="M273.5 247.5L57.5 241.5C57.5 241.5 54.0019 230.059 53 222.5C51.6915 212.628 53 197 53 197H58H63C64 197 65 195.543 65 195.543L103.5 167.5C103.5 167.5 108.5 165 111 165C113.5 165 118 167.5 118 167.5L262 228.5C262 228.5 268.165 233.267 270.5 237.5C272.469 241.07 273.5 247.5 273.5 247.5Z" fill="#3D3D3D"/>
<path d="M468.992 205.647C472.61 199.925 468.848 189.955 459.949 179.62C469.574 170.032 474.076 160.409 470.897 154.406C470.172 153.011 469.03 151.845 467.563 150.918L465.08 154.844C465.893 155.358 466.447 155.929 466.805 156.575C468.34 159.468 466.076 165.356 461.01 171.567C459.769 173.099 458.349 174.641 456.836 176.173C453.907 173.138 450.538 170.095 446.83 167.159C446.504 162.394 445.901 157.872 445.046 153.708C454.179 152.017 461.434 152.513 465.109 154.837L467.592 150.911C462.733 147.839 454.19 147.267 443.974 149.185C441.305 139.168 437.104 131.73 432.245 128.657L429.763 132.583C433.42 134.896 437.007 141.231 439.416 150.173C435.306 151.197 430.973 152.572 426.564 154.343C422.304 152.241 418.111 150.501 414.102 149.174C414.809 147.156 415.588 145.258 416.412 143.487C419.834 136.237 424.166 131.656 427.43 131.774C428.161 131.792 428.939 132.087 429.752 132.601L432.234 128.675C430.75 127.736 429.207 127.204 427.618 127.136C420.849 126.848 414.114 135.035 409.618 147.816C396.49 144.247 385.917 145.126 382.309 150.83C378.691 156.552 382.453 166.522 391.352 176.857C381.727 186.444 377.225 196.068 380.404 202.071C381.129 203.466 382.271 204.632 383.756 205.57C388.615 208.643 397.157 209.215 407.374 207.296C410.042 217.314 414.243 224.752 419.102 227.824C420.586 228.763 422.129 229.295 423.719 229.363C430.487 229.651 437.222 221.465 441.719 208.683C454.8 212.248 465.385 211.351 468.992 205.647ZM453.413 179.356C451.323 181.214 449.03 183.041 446.63 184.802C446.796 182.935 446.927 181.047 446.987 179.113C447.065 177.191 447.068 175.27 447.048 173.384C449.323 175.341 451.455 177.329 453.413 179.356ZM433.464 192.988C430.583 194.493 427.744 195.853 424.953 197.021C422.176 195.585 419.43 194.021 416.744 192.322C414.076 190.635 411.486 188.825 409.005 186.96C408.863 183.938 408.846 180.797 408.959 177.566C409.075 174.411 409.337 171.298 409.715 168.235C412.303 166.569 415.031 164.992 417.815 163.524C420.696 162.019 423.535 160.659 426.326 159.491C429.103 160.927 431.849 162.491 434.535 164.19C437.203 165.877 439.793 167.687 442.274 169.552C442.416 172.574 442.433 175.715 442.319 178.946C442.204 182.101 441.942 185.214 441.563 188.277C438.958 189.932 436.248 191.52 433.464 192.988ZM440.618 194.309C440.08 197.271 439.401 200.144 438.626 202.857C435.955 201.957 433.216 200.89 430.455 199.662C432.178 198.854 433.924 198.011 435.638 197.099C437.342 196.204 439.003 195.259 440.618 194.309ZM410.823 201.763C410.249 199.034 409.797 196.111 409.474 193.024C411.02 194.1 412.612 195.18 414.255 196.22C415.916 197.27 417.581 198.274 419.245 199.203C416.352 200.257 413.518 201.101 410.823 201.763ZM404.235 183.081C401.96 181.125 399.829 179.136 397.871 177.109C399.96 175.252 402.254 173.424 404.653 171.664C404.487 173.53 404.356 175.419 404.296 177.353C404.236 179.286 404.215 181.196 404.235 183.081ZM440.46 154.702C441.035 157.431 441.487 160.354 441.809 163.442C440.264 162.366 438.672 161.285 437.029 160.246C435.368 159.196 433.702 158.192 432.039 157.263C434.931 156.209 437.766 155.364 440.46 154.702ZM420.828 156.803C419.105 157.611 417.36 158.455 415.645 159.367C413.942 160.261 412.291 161.189 410.676 162.139C411.214 159.177 411.893 156.304 412.669 153.591C415.329 154.509 418.068 155.575 420.828 156.803ZM390.899 168.733C386.326 162.119 384.484 156.075 386.232 153.311C387.98 150.547 394.241 149.602 402.166 150.917C404.097 151.226 406.126 151.696 408.185 152.234C407.01 156.321 406.064 160.75 405.38 165.469C401.439 168.103 397.871 170.85 394.711 173.657C393.307 172.005 392.025 170.356 390.899 168.733ZM384.496 199.902C382.961 197.009 385.225 191.121 390.291 184.91C391.532 183.378 392.952 181.836 394.465 180.304C397.394 183.339 400.763 186.381 404.471 189.318C404.797 194.083 405.4 198.605 406.255 202.769C397.122 204.46 389.867 203.964 386.192 201.64C385.408 201.119 384.837 200.536 384.496 199.902ZM434.889 212.99C431.467 220.24 427.136 224.821 423.871 224.703C423.14 224.685 422.362 224.39 421.549 223.876C417.892 221.563 414.305 215.228 411.896 206.286C416.006 205.263 420.339 203.887 424.748 202.116C429.009 204.219 433.202 205.958 437.21 207.286C436.492 209.321 435.73 211.23 434.889 212.99ZM449.117 205.549C447.186 205.239 445.158 204.77 443.099 204.232C444.274 200.145 445.22 195.715 445.903 190.997C449.845 188.363 453.412 185.616 456.572 182.808C457.977 184.46 459.259 186.109 460.402 187.744C464.975 194.358 466.817 200.402 465.069 203.166C463.304 205.919 457.042 206.864 449.117 205.549Z" fill="#61DAFB"/>
<path d="M420.545 186.273C425.005 189.093 430.898 187.777 433.707 183.333C436.517 178.89 435.18 173.002 430.721 170.182C426.261 167.362 420.368 168.678 417.558 173.121C414.748 177.564 416.086 183.453 420.545 186.273Z" fill="#61DAFB"/>
</g>
<defs>
<clipPath id="clip0">
<rect width="806" height="356" fill="white"/>
</clipPath>
</defs>
</svg>
